<?xml version="1.0" encoding="UTF-8" standalone="no"?>
<!DOCTYPE svg PUBLIC "-//W3C//DTD SVG 1.1//EN"
 "http://www.w3.org/Graphics/SVG/1.1/DTD/svg11.dtd">
<!-- Generated by graphviz version 2.43.0 (0)
 -->
<!-- Title: snakemake_dag Pages: 1 -->
<svg width="180pt" height="404pt"
 viewBox="0.00 0.00 180.00 404.00" xmlns="http://www.w3.org/2000/svg" xmlns:xlink="http://www.w3.org/1999/xlink">
<g id="graph0" class="graph" transform="scale(1 1) rotate(0) translate(4 400)">
<title>snakemake_dag</title>
<polygon fill="white" stroke="transparent" points="-4,4 -4,-400 176,-400 176,4 -4,4"/>
<!-- 0 -->
<g id="node1" class="node">
<title>0</title>
<path fill="none" stroke="#d8cb56" stroke-width="2" d="M109.5,-36C109.5,-36 79.5,-36 79.5,-36 73.5,-36 67.5,-30 67.5,-24 67.5,-24 67.5,-12 67.5,-12 67.5,-6 73.5,0 79.5,0 79.5,0 109.5,0 109.5,0 115.5,0 121.5,-6 121.5,-12 121.5,-12 121.5,-24 121.5,-24 121.5,-30 115.5,-36 109.5,-36"/>
<text text-anchor="middle" x="94.5" y="-15.5" font-family="sans" font-size="10.00">all</text>
</g>
<!-- 1 -->
<g id="node2" class="node">
<title>1</title>
<path fill="none" stroke="#afd856" stroke-width="2" d="M130,-180C130,-180 59,-180 59,-180 53,-180 47,-174 47,-168 47,-168 47,-156 47,-156 47,-150 53,-144 59,-144 59,-144 130,-144 130,-144 136,-144 142,-150 142,-156 142,-156 142,-168 142,-168 142,-174 136,-180 130,-180"/>
<text text-anchor="middle" x="94.5" y="-159.5" font-family="sans" font-size="10.00">bcftools_mpileup</text>
</g>
<!-- 1&#45;&gt;0 -->
<g id="edge1" class="edge">
<title>1&#45;&gt;0</title>
<path fill="none" stroke="grey" stroke-width="2" d="M88.68,-143.56C85.57,-133.33 82.07,-120.08 80.5,-108 78.44,-92.13 78.44,-87.87 80.5,-72 81.6,-63.51 83.66,-54.43 85.87,-46.24"/>
<polygon fill="grey" stroke="grey" stroke-width="2" points="89.28,-47.02 88.68,-36.44 82.55,-45.09 89.28,-47.02"/>
</g>
<!-- 6 -->
<g id="node7" class="node">
<title>6</title>
<path fill="none" stroke="#5692d8" stroke-width="2" d="M153.5,-108C153.5,-108 101.5,-108 101.5,-108 95.5,-108 89.5,-102 89.5,-96 89.5,-96 89.5,-84 89.5,-84 89.5,-78 95.5,-72 101.5,-72 101.5,-72 153.5,-72 153.5,-72 159.5,-72 165.5,-78 165.5,-84 165.5,-84 165.5,-96 165.5,-96 165.5,-102 159.5,-108 153.5,-108"/>
<text text-anchor="middle" x="127.5" y="-87.5" font-family="sans" font-size="10.00">plot_variants</text>
</g>
<!-- 1&#45;&gt;6 -->
<g id="edge7" class="edge">
<title>1&#45;&gt;6</title>
<path fill="none" stroke="grey" stroke-width="2" d="M102.66,-143.7C106.41,-135.73 110.95,-126.1 115.12,-117.26"/>
<polygon fill="grey" stroke="grey" stroke-width="2" points="118.34,-118.64 119.44,-108.1 112.01,-115.66 118.34,-118.64"/>
</g>
<!-- 2 -->
<g id="node3" class="node">
<title>2</title>
<path fill="none" stroke="#d88d56" stroke-width="2" d="M114.5,-252C114.5,-252 74.5,-252 74.5,-252 68.5,-252 62.5,-246 62.5,-240 62.5,-240 62.5,-228 62.5,-228 62.5,-222 68.5,-216 74.5,-216 74.5,-216 114.5,-216 114.5,-216 120.5,-216 126.5,-222 126.5,-228 126.5,-228 126.5,-240 126.5,-240 126.5,-246 120.5,-252 114.5,-252"/>
<text text-anchor="middle" x="94.5" y="-231.5" font-family="sans" font-size="10.00">bwa_mem</text>
</g>
<!-- 2&#45;&gt;1 -->
<g id="edge3" class="edge">
<title>2&#45;&gt;1</title>
<path fill="none" stroke="grey" stroke-width="2" d="M94.5,-215.7C94.5,-207.98 94.5,-198.71 94.5,-190.11"/>
<polygon fill="grey" stroke="grey" stroke-width="2" points="98,-190.1 94.5,-180.1 91,-190.1 98,-190.1"/>
</g>
<!-- 3 -->
<g id="node4" class="node">
<title>3</title>
<path fill="none" stroke="#70d856" stroke-width="2" d="M77,-324C77,-324 24,-324 24,-324 18,-324 12,-318 12,-312 12,-312 12,-300 12,-300 12,-294 18,-288 24,-288 24,-288 77,-288 77,-288 83,-288 89,-294 89,-300 89,-300 89,-312 89,-312 89,-318 83,-324 77,-324"/>
<text text-anchor="middle" x="50.5" y="-303.5" font-family="sans" font-size="10.00">trim_and_cut</text>
</g>
<!-- 3&#45;&gt;2 -->
<g id="edge4" class="edge">
<title>3&#45;&gt;2</title>
<path fill="none" stroke="grey" stroke-width="2" d="M61.38,-287.7C66.49,-279.56 72.7,-269.69 78.34,-260.7"/>
<polygon fill="grey" stroke="grey" stroke-width="2" points="81.39,-262.43 83.75,-252.1 75.46,-258.71 81.39,-262.43"/>
</g>
<!-- 4 -->
<g id="node5" class="node">
<title>4</title>
<path fill="none" stroke="#56d873" stroke-width="2" d="M89,-396C89,-396 12,-396 12,-396 6,-396 0,-390 0,-384 0,-384 0,-372 0,-372 0,-366 6,-360 12,-360 12,-360 89,-360 89,-360 95,-360 101,-366 101,-372 101,-372 101,-384 101,-384 101,-390 95,-396 89,-396"/>
<text text-anchor="middle" x="50.5" y="-375.5" font-family="sans" font-size="10.00">sabre_demultiplex</text>
</g>
<!-- 4&#45;&gt;3 -->
<g id="edge6" class="edge">
<title>4&#45;&gt;3</title>
<path fill="none" stroke="grey" stroke-width="2" d="M50.5,-359.7C50.5,-351.98 50.5,-342.71 50.5,-334.11"/>
<polygon fill="grey" stroke="grey" stroke-width="2" points="54,-334.1 50.5,-324.1 47,-334.1 54,-334.1"/>
</g>
<!-- 5 -->
<g id="node6" class="node">
<title>5</title>
<path fill="none" stroke="#56c9d8" stroke-width="2" d="M160,-324C160,-324 119,-324 119,-324 113,-324 107,-318 107,-312 107,-312 107,-300 107,-300 107,-294 113,-288 119,-288 119,-288 160,-288 160,-288 166,-288 172,-294 172,-300 172,-300 172,-312 172,-312 172,-318 166,-324 160,-324"/>
<text text-anchor="middle" x="139.5" y="-303.5" font-family="sans" font-size="10.00">bwa_index</text>
</g>
<!-- 5&#45;&gt;2 -->
<g id="edge5" class="edge">
<title>5&#45;&gt;2</title>
<path fill="none" stroke="grey" stroke-width="2" d="M128.38,-287.7C123.14,-279.56 116.8,-269.69 111.02,-260.7"/>
<polygon fill="grey" stroke="grey" stroke-width="2" points="113.85,-258.62 105.5,-252.1 107.96,-262.41 113.85,-258.62"/>
</g>
<!-- 6&#45;&gt;0 -->
<g id="edge2" class="edge">
<title>6&#45;&gt;0</title>
<path fill="none" stroke="grey" stroke-width="2" d="M119.34,-71.7C115.59,-63.73 111.05,-54.1 106.88,-45.26"/>
<polygon fill="grey" stroke="grey" stroke-width="2" points="109.99,-43.66 102.56,-36.1 103.66,-46.64 109.99,-43.66"/>
</g>
</g>
</svg>
